<mxfile host="app.diagrams.net" modified="2024-05-14T11:57:47.372Z" agent="Mozilla/5.0 (Windows NT 10.0; Win64; x64) AppleWebKit/537.36 (KHTML, like Gecko) Chrome/124.0.0.0 Safari/537.36" etag="D-_F685DTfhuiByHkiV6" version="24.3.1" type="github">
  <diagram name="Page-1" id="97916047-d0de-89f5-080d-49f4d83e522f">
    <mxGraphModel dx="2333" dy="1178" grid="1" gridSize="10" guides="1" tooltips="1" connect="1" arrows="1" fold="1" page="1" pageScale="1.5" pageWidth="1169" pageHeight="827" background="none" math="0" shadow="0">
      <root>
        <mxCell id="0" />
        <mxCell id="1" parent="0" />
        <mxCell id="_YeQc3O419G1KaWer5tC-75" style="edgeStyle=orthogonalEdgeStyle;rounded=1;orthogonalLoop=1;jettySize=auto;html=1;entryX=0.5;entryY=0;entryDx=0;entryDy=0;exitX=0.5;exitY=1;exitDx=0;exitDy=0;strokeWidth=4;curved=0;fontSize=19;" parent="1" source="3" target="_YeQc3O419G1KaWer5tC-55" edge="1">
          <mxGeometry relative="1" as="geometry" />
        </mxCell>
        <mxCell id="_YeQc3O419G1KaWer5tC-76" style="edgeStyle=orthogonalEdgeStyle;rounded=0;orthogonalLoop=1;jettySize=auto;html=1;entryX=0.5;entryY=0;entryDx=0;entryDy=0;strokeWidth=4;fontSize=19;" parent="1" source="3" target="18" edge="1">
          <mxGeometry relative="1" as="geometry" />
        </mxCell>
        <mxCell id="3" value="Smart Calorie Monitoring" style="rounded=1;shadow=1;fontStyle=1;fontSize=19;whiteSpace=wrap;" parent="1" vertex="1">
          <mxGeometry x="657" y="430" width="220" height="60" as="geometry" />
        </mxCell>
        <mxCell id="_YeQc3O419G1KaWer5tC-57" style="edgeStyle=orthogonalEdgeStyle;rounded=0;orthogonalLoop=1;jettySize=auto;html=1;entryX=0;entryY=0.25;entryDx=0;entryDy=0;exitX=0;exitY=0.5;exitDx=0;exitDy=0;fontSize=18;" parent="1" source="8" target="9" edge="1">
          <mxGeometry relative="1" as="geometry" />
        </mxCell>
        <mxCell id="_YeQc3O419G1KaWer5tC-58" style="edgeStyle=orthogonalEdgeStyle;rounded=0;orthogonalLoop=1;jettySize=auto;html=1;entryX=0;entryY=0.5;entryDx=0;entryDy=0;exitX=0;exitY=0.5;exitDx=0;exitDy=0;fontSize=18;" parent="1" source="8" target="10" edge="1">
          <mxGeometry relative="1" as="geometry" />
        </mxCell>
        <mxCell id="_YeQc3O419G1KaWer5tC-59" style="edgeStyle=orthogonalEdgeStyle;rounded=0;orthogonalLoop=1;jettySize=auto;html=1;entryX=0;entryY=0.5;entryDx=0;entryDy=0;exitX=0;exitY=0.5;exitDx=0;exitDy=0;fontSize=18;" parent="1" source="8" target="11" edge="1">
          <mxGeometry relative="1" as="geometry" />
        </mxCell>
        <mxCell id="8" value="Research" style="rounded=1;shadow=1;fontStyle=1;fontSize=18;" parent="1" vertex="1">
          <mxGeometry x="90" y="610" width="200" height="60" as="geometry" />
        </mxCell>
        <mxCell id="9" value="Research Existing Solution" style="rounded=1;shadow=1;fontStyle=1;fontSize=19;whiteSpace=wrap;" parent="1" vertex="1">
          <mxGeometry x="130" y="700" width="200" height="60" as="geometry" />
        </mxCell>
        <mxCell id="10" value="Requirment Gathering" style="rounded=1;shadow=1;fontStyle=1;fontSize=19;whiteSpace=wrap;" parent="1" vertex="1">
          <mxGeometry x="130" y="790" width="200" height="60" as="geometry" />
        </mxCell>
        <mxCell id="11" value="Research on Algorithms" style="rounded=1;shadow=1;fontStyle=1;fontSize=19;whiteSpace=wrap;" parent="1" vertex="1">
          <mxGeometry x="130" y="880" width="200" height="60" as="geometry" />
        </mxCell>
        <mxCell id="_YeQc3O419G1KaWer5tC-65" style="edgeStyle=orthogonalEdgeStyle;rounded=0;orthogonalLoop=1;jettySize=auto;html=1;entryX=0;entryY=0.5;entryDx=0;entryDy=0;exitX=0;exitY=0.5;exitDx=0;exitDy=0;fontSize=19;" parent="1" source="13" target="14" edge="1">
          <mxGeometry relative="1" as="geometry" />
        </mxCell>
        <mxCell id="_YeQc3O419G1KaWer5tC-66" style="edgeStyle=orthogonalEdgeStyle;rounded=0;orthogonalLoop=1;jettySize=auto;html=1;entryX=0;entryY=0.5;entryDx=0;entryDy=0;exitX=0;exitY=0.5;exitDx=0;exitDy=0;fontSize=19;" parent="1" source="13" target="_YeQc3O419G1KaWer5tC-63" edge="1">
          <mxGeometry relative="1" as="geometry" />
        </mxCell>
        <mxCell id="_YeQc3O419G1KaWer5tC-67" style="edgeStyle=orthogonalEdgeStyle;rounded=0;orthogonalLoop=1;jettySize=auto;html=1;entryX=0;entryY=0.5;entryDx=0;entryDy=0;exitX=0;exitY=0.5;exitDx=0;exitDy=0;fontSize=19;" parent="1" source="13" target="_YeQc3O419G1KaWer5tC-62" edge="1">
          <mxGeometry relative="1" as="geometry" />
        </mxCell>
        <mxCell id="_YeQc3O419G1KaWer5tC-68" style="edgeStyle=orthogonalEdgeStyle;rounded=0;orthogonalLoop=1;jettySize=auto;html=1;entryX=0;entryY=0.5;entryDx=0;entryDy=0;exitX=0;exitY=0.5;exitDx=0;exitDy=0;fontSize=19;" parent="1" source="13" target="_YeQc3O419G1KaWer5tC-64" edge="1">
          <mxGeometry relative="1" as="geometry" />
        </mxCell>
        <mxCell id="_YeQc3O419G1KaWer5tC-69" style="edgeStyle=orthogonalEdgeStyle;rounded=0;orthogonalLoop=1;jettySize=auto;html=1;entryX=0;entryY=0.5;entryDx=0;entryDy=0;exitX=0;exitY=0.5;exitDx=0;exitDy=0;fontSize=19;" parent="1" source="13" target="15" edge="1">
          <mxGeometry relative="1" as="geometry" />
        </mxCell>
        <mxCell id="_YeQc3O419G1KaWer5tC-70" style="edgeStyle=orthogonalEdgeStyle;rounded=0;orthogonalLoop=1;jettySize=auto;html=1;entryX=0;entryY=0.5;entryDx=0;entryDy=0;exitX=0;exitY=0.5;exitDx=0;exitDy=0;fontSize=19;" parent="1" source="13" target="16" edge="1">
          <mxGeometry relative="1" as="geometry" />
        </mxCell>
        <mxCell id="13" value="Design" style="rounded=1;shadow=1;fontStyle=1;fontSize=19;whiteSpace=wrap;" parent="1" vertex="1">
          <mxGeometry x="390" y="610" width="200" height="60" as="geometry" />
        </mxCell>
        <mxCell id="14" value="System Architecture Design" style="rounded=1;shadow=1;fontStyle=1;fontSize=19;whiteSpace=wrap;" parent="1" vertex="1">
          <mxGeometry x="430" y="700" width="200" height="60" as="geometry" />
        </mxCell>
        <mxCell id="15" value="Low Fidelity Design" style="rounded=1;shadow=1;fontStyle=1;fontSize=19;whiteSpace=wrap;" parent="1" vertex="1">
          <mxGeometry x="430" y="1054.5" width="200" height="60" as="geometry" />
        </mxCell>
        <mxCell id="16" value="High Fidelity Design" style="rounded=1;shadow=1;fontStyle=1;fontSize=19;whiteSpace=wrap;" parent="1" vertex="1">
          <mxGeometry x="430" y="1144.5" width="200" height="60" as="geometry" />
        </mxCell>
        <mxCell id="_YeQc3O419G1KaWer5tC-77" style="edgeStyle=orthogonalEdgeStyle;rounded=0;orthogonalLoop=1;jettySize=auto;html=1;entryX=0;entryY=0.5;entryDx=0;entryDy=0;exitX=0;exitY=0.5;exitDx=0;exitDy=0;fontSize=19;" parent="1" source="18" target="19" edge="1">
          <mxGeometry relative="1" as="geometry" />
        </mxCell>
        <mxCell id="_YeQc3O419G1KaWer5tC-79" style="edgeStyle=orthogonalEdgeStyle;rounded=0;orthogonalLoop=1;jettySize=auto;html=1;entryX=0;entryY=0.5;entryDx=0;entryDy=0;exitX=0;exitY=0.5;exitDx=0;exitDy=0;fontSize=19;" parent="1" source="18" target="20" edge="1">
          <mxGeometry relative="1" as="geometry" />
        </mxCell>
        <mxCell id="_YeQc3O419G1KaWer5tC-80" style="edgeStyle=orthogonalEdgeStyle;rounded=0;orthogonalLoop=1;jettySize=auto;html=1;entryX=0;entryY=0.5;entryDx=0;entryDy=0;exitX=0;exitY=0.5;exitDx=0;exitDy=0;fontSize=19;" parent="1" source="18" target="21" edge="1">
          <mxGeometry relative="1" as="geometry" />
        </mxCell>
        <mxCell id="_YeQc3O419G1KaWer5tC-82" style="edgeStyle=orthogonalEdgeStyle;rounded=0;orthogonalLoop=1;jettySize=auto;html=1;entryX=0;entryY=0.5;entryDx=0;entryDy=0;exitX=0;exitY=0.5;exitDx=0;exitDy=0;fontSize=19;" parent="1" source="18" target="22" edge="1">
          <mxGeometry relative="1" as="geometry" />
        </mxCell>
        <mxCell id="_YeQc3O419G1KaWer5tC-83" style="edgeStyle=orthogonalEdgeStyle;rounded=0;orthogonalLoop=1;jettySize=auto;html=1;entryX=0;entryY=0.5;entryDx=0;entryDy=0;exitX=0;exitY=0.5;exitDx=0;exitDy=0;fontSize=19;" parent="1" source="18" target="_YeQc3O419G1KaWer5tC-71" edge="1">
          <mxGeometry relative="1" as="geometry" />
        </mxCell>
        <mxCell id="18" value="Implementation" style="rounded=1;shadow=1;fontStyle=1;fontSize=19;whiteSpace=wrap;" parent="1" vertex="1">
          <mxGeometry x="680" y="610" width="200" height="60" as="geometry" />
        </mxCell>
        <mxCell id="19" value="Train Image Model" style="rounded=1;shadow=1;fontStyle=1;fontSize=19;whiteSpace=wrap;" parent="1" vertex="1">
          <mxGeometry x="715" y="700" width="200" height="60" as="geometry" />
        </mxCell>
        <mxCell id="20" value="Backend " style="rounded=1;shadow=1;fontStyle=1;fontSize=19;whiteSpace=wrap;" parent="1" vertex="1">
          <mxGeometry x="715" y="790" width="200" height="60" as="geometry" />
        </mxCell>
        <mxCell id="21" value="Front End " style="rounded=1;shadow=1;fontStyle=1;fontSize=19;whiteSpace=wrap;" parent="1" vertex="1">
          <mxGeometry x="715" y="880" width="200" height="60" as="geometry" />
        </mxCell>
        <mxCell id="22" value="API Connectivity" style="rounded=1;shadow=1;fontStyle=1;fontSize=19;whiteSpace=wrap;" parent="1" vertex="1">
          <mxGeometry x="715" y="970" width="200" height="60" as="geometry" />
        </mxCell>
        <mxCell id="_YeQc3O419G1KaWer5tC-84" style="edgeStyle=orthogonalEdgeStyle;rounded=0;orthogonalLoop=1;jettySize=auto;html=1;entryX=0;entryY=0.5;entryDx=0;entryDy=0;exitX=0;exitY=0.5;exitDx=0;exitDy=0;fontSize=19;" parent="1" source="23" target="24" edge="1">
          <mxGeometry relative="1" as="geometry">
            <mxPoint x="970" y="650" as="sourcePoint" />
          </mxGeometry>
        </mxCell>
        <mxCell id="_YeQc3O419G1KaWer5tC-86" style="edgeStyle=orthogonalEdgeStyle;rounded=0;orthogonalLoop=1;jettySize=auto;html=1;entryX=0;entryY=0.5;entryDx=0;entryDy=0;exitX=0;exitY=0.5;exitDx=0;exitDy=0;fontSize=19;" parent="1" source="23" target="25" edge="1">
          <mxGeometry relative="1" as="geometry" />
        </mxCell>
        <mxCell id="_YeQc3O419G1KaWer5tC-87" style="edgeStyle=orthogonalEdgeStyle;rounded=0;orthogonalLoop=1;jettySize=auto;html=1;entryX=0;entryY=0.5;entryDx=0;entryDy=0;exitX=0;exitY=0.5;exitDx=0;exitDy=0;fontSize=19;" parent="1" source="23" target="26" edge="1">
          <mxGeometry relative="1" as="geometry" />
        </mxCell>
        <mxCell id="_YeQc3O419G1KaWer5tC-88" style="edgeStyle=orthogonalEdgeStyle;rounded=0;orthogonalLoop=1;jettySize=auto;html=1;entryX=0;entryY=0.5;entryDx=0;entryDy=0;exitX=0;exitY=0.5;exitDx=0;exitDy=0;fontSize=19;" parent="1" source="23" target="27" edge="1">
          <mxGeometry relative="1" as="geometry" />
        </mxCell>
        <mxCell id="23" value="Testing" style="rounded=1;shadow=1;fontStyle=1;fontSize=19;whiteSpace=wrap;" parent="1" vertex="1">
          <mxGeometry x="980" y="610" width="200" height="60" as="geometry" />
        </mxCell>
        <mxCell id="24" value="Unit Testing" style="rounded=1;shadow=1;fontStyle=1;fontSize=19;whiteSpace=wrap;" parent="1" vertex="1">
          <mxGeometry x="1010" y="700" width="200" height="60" as="geometry" />
        </mxCell>
        <mxCell id="25" value="Integration Testing" style="rounded=1;shadow=1;fontStyle=1;fontSize=19;whiteSpace=wrap;" parent="1" vertex="1">
          <mxGeometry x="1010" y="790" width="200" height="60" as="geometry" />
        </mxCell>
        <mxCell id="26" value="System Testing" style="rounded=1;shadow=1;fontStyle=1;fontSize=19;whiteSpace=wrap;" parent="1" vertex="1">
          <mxGeometry x="1010" y="880" width="200" height="60" as="geometry" />
        </mxCell>
        <mxCell id="27" value="Acceptance Testing" style="rounded=1;shadow=1;fontStyle=1;fontSize=19;whiteSpace=wrap;" parent="1" vertex="1">
          <mxGeometry x="1010" y="970" width="200" height="60" as="geometry" />
        </mxCell>
        <mxCell id="34" value="" style="edgeStyle=elbowEdgeStyle;elbow=vertical;strokeWidth=4;endArrow=block;endFill=1;fontStyle=1;fontSize=19;" parent="1" source="3" target="8" edge="1">
          <mxGeometry x="22" y="165.5" width="100" height="100" as="geometry">
            <mxPoint x="22" y="265.5" as="sourcePoint" />
            <mxPoint x="122" y="165.5" as="targetPoint" />
            <Array as="points">
              <mxPoint x="552" y="555.5" />
            </Array>
          </mxGeometry>
        </mxCell>
        <mxCell id="37" value="" style="edgeStyle=elbowEdgeStyle;elbow=vertical;strokeWidth=4;endArrow=block;endFill=1;fontStyle=1;fontSize=19;" parent="1" source="3" target="23" edge="1">
          <mxGeometry x="22" y="165.5" width="100" height="100" as="geometry">
            <mxPoint x="22" y="265.5" as="sourcePoint" />
            <mxPoint x="122" y="165.5" as="targetPoint" />
            <Array as="points">
              <mxPoint x="920" y="550" />
            </Array>
          </mxGeometry>
        </mxCell>
        <mxCell id="54" value="" style="edgeStyle=elbowEdgeStyle;elbow=vertical;strokeWidth=4;endArrow=block;endFill=1;fontStyle=1;fontSize=19;" parent="1" source="3" target="13" edge="1">
          <mxGeometry x="22" y="165.5" width="100" height="100" as="geometry">
            <mxPoint x="22" y="265.5" as="sourcePoint" />
            <mxPoint x="122" y="165.5" as="targetPoint" />
            <Array as="points">
              <mxPoint x="652" y="555.5" />
            </Array>
          </mxGeometry>
        </mxCell>
        <mxCell id="_YeQc3O419G1KaWer5tC-90" style="edgeStyle=orthogonalEdgeStyle;rounded=0;orthogonalLoop=1;jettySize=auto;html=1;entryX=0;entryY=0.5;entryDx=0;entryDy=0;exitX=0;exitY=0.5;exitDx=0;exitDy=0;fontSize=19;" parent="1" source="_YeQc3O419G1KaWer5tC-55" target="_YeQc3O419G1KaWer5tC-72" edge="1">
          <mxGeometry relative="1" as="geometry" />
        </mxCell>
        <mxCell id="_YeQc3O419G1KaWer5tC-91" style="edgeStyle=orthogonalEdgeStyle;rounded=0;orthogonalLoop=1;jettySize=auto;html=1;entryX=0;entryY=0.5;entryDx=0;entryDy=0;exitX=0;exitY=0.5;exitDx=0;exitDy=0;fontSize=19;" parent="1" source="_YeQc3O419G1KaWer5tC-55" target="_YeQc3O419G1KaWer5tC-73" edge="1">
          <mxGeometry relative="1" as="geometry" />
        </mxCell>
        <mxCell id="_YeQc3O419G1KaWer5tC-55" value="Deployment" style="rounded=1;shadow=1;fontStyle=1;fontSize=19;whiteSpace=wrap;" parent="1" vertex="1">
          <mxGeometry x="1260" y="610" width="200" height="60" as="geometry" />
        </mxCell>
        <mxCell id="_YeQc3O419G1KaWer5tC-62" value="Sequence Diagrams" style="rounded=1;shadow=1;fontStyle=1;fontSize=19;whiteSpace=wrap;" parent="1" vertex="1">
          <mxGeometry x="430" y="880" width="200" height="60" as="geometry" />
        </mxCell>
        <mxCell id="_YeQc3O419G1KaWer5tC-63" value="Use Case Diagrams" style="rounded=1;shadow=1;fontStyle=1;fontSize=19;whiteSpace=wrap;" parent="1" vertex="1">
          <mxGeometry x="430" y="790" width="200" height="60" as="geometry" />
        </mxCell>
        <mxCell id="_YeQc3O419G1KaWer5tC-64" value="Database Design" style="rounded=1;shadow=1;fontStyle=1;fontSize=19;whiteSpace=wrap;" parent="1" vertex="1">
          <mxGeometry x="430" y="970" width="200" height="60" as="geometry" />
        </mxCell>
        <mxCell id="_YeQc3O419G1KaWer5tC-71" value="Integrate BackEnd and Front-end" style="rounded=1;shadow=1;fontStyle=1;fontSize=19;whiteSpace=wrap;" parent="1" vertex="1">
          <mxGeometry x="715" y="1054.5" width="200" height="60" as="geometry" />
        </mxCell>
        <mxCell id="_YeQc3O419G1KaWer5tC-72" value="User Manual" style="rounded=1;shadow=1;fontStyle=1;fontSize=19;whiteSpace=wrap;" parent="1" vertex="1">
          <mxGeometry x="1300" y="700" width="200" height="60" as="geometry" />
        </mxCell>
        <mxCell id="_YeQc3O419G1KaWer5tC-73" value="Marketing" style="rounded=1;shadow=1;fontStyle=1;fontSize=19;whiteSpace=wrap;" parent="1" vertex="1">
          <mxGeometry x="1300" y="790" width="200" height="60" as="geometry" />
        </mxCell>
        <mxCell id="21sruWTBT0xR1gK5jgPk-66" style="edgeStyle=orthogonalEdgeStyle;rounded=0;orthogonalLoop=1;jettySize=auto;html=1;" parent="1" source="21sruWTBT0xR1gK5jgPk-55" target="21sruWTBT0xR1gK5jgPk-56" edge="1">
          <mxGeometry relative="1" as="geometry" />
        </mxCell>
        <mxCell id="21sruWTBT0xR1gK5jgPk-55" value="" style="sketch=0;outlineConnect=0;fontColor=#232F3E;gradientColor=none;fillColor=#232F3D;strokeColor=none;dashed=0;verticalLabelPosition=bottom;verticalAlign=top;align=center;html=1;fontSize=12;fontStyle=0;aspect=fixed;pointerEvents=1;shape=mxgraph.aws4.mobile_client;" parent="1" vertex="1">
          <mxGeometry x="110" y="1660" width="136.67" height="260" as="geometry" />
        </mxCell>
        <mxCell id="21sruWTBT0xR1gK5jgPk-67" style="edgeStyle=orthogonalEdgeStyle;rounded=0;orthogonalLoop=1;jettySize=auto;html=1;entryX=0;entryY=0.7;entryDx=0;entryDy=0;" parent="1" source="21sruWTBT0xR1gK5jgPk-56" target="21sruWTBT0xR1gK5jgPk-57" edge="1">
          <mxGeometry relative="1" as="geometry" />
        </mxCell>
        <mxCell id="21sruWTBT0xR1gK5jgPk-69" style="edgeStyle=orthogonalEdgeStyle;rounded=0;orthogonalLoop=1;jettySize=auto;html=1;entryX=0;entryY=0.5;entryDx=0;entryDy=0;" parent="1" source="21sruWTBT0xR1gK5jgPk-56" target="21sruWTBT0xR1gK5jgPk-60" edge="1">
          <mxGeometry relative="1" as="geometry">
            <Array as="points">
              <mxPoint x="650" y="1790" />
              <mxPoint x="650" y="1995" />
            </Array>
          </mxGeometry>
        </mxCell>
        <mxCell id="21sruWTBT0xR1gK5jgPk-56" value="" style="sketch=0;outlineConnect=0;fontColor=#232F3E;gradientColor=none;fillColor=#232F3D;strokeColor=none;dashed=0;verticalLabelPosition=bottom;verticalAlign=top;align=center;html=1;fontSize=12;fontStyle=0;aspect=fixed;pointerEvents=1;shape=mxgraph.aws4.authenticated_user;" parent="1" vertex="1">
          <mxGeometry x="480" y="1751" width="78" height="78" as="geometry" />
        </mxCell>
        <mxCell id="21sruWTBT0xR1gK5jgPk-68" style="edgeStyle=orthogonalEdgeStyle;rounded=0;orthogonalLoop=1;jettySize=auto;html=1;" parent="1" source="21sruWTBT0xR1gK5jgPk-57" edge="1">
          <mxGeometry relative="1" as="geometry">
            <mxPoint x="970" y="1660" as="targetPoint" />
          </mxGeometry>
        </mxCell>
        <mxCell id="21sruWTBT0xR1gK5jgPk-57" value="" style="shape=datastore;whiteSpace=wrap;html=1;" parent="1" vertex="1">
          <mxGeometry x="737" y="1630" width="60" height="60" as="geometry" />
        </mxCell>
        <mxCell id="21sruWTBT0xR1gK5jgPk-58" value="" style="sketch=0;pointerEvents=1;shadow=0;dashed=0;html=1;strokeColor=none;fillColor=#505050;labelPosition=center;verticalLabelPosition=bottom;verticalAlign=top;outlineConnect=0;align=center;shape=mxgraph.office.concepts.settings_office_365;" parent="1" vertex="1">
          <mxGeometry x="970" y="1636" width="48" height="48" as="geometry" />
        </mxCell>
        <mxCell id="21sruWTBT0xR1gK5jgPk-59" value="&lt;div&gt;&lt;br/&gt;&lt;/div&gt;" style="rounded=0;whiteSpace=wrap;html=1;fontStyle=1" parent="1" vertex="1">
          <mxGeometry x="677" y="1860" width="803" height="270" as="geometry" />
        </mxCell>
        <mxCell id="21sruWTBT0xR1gK5jgPk-70" style="edgeStyle=orthogonalEdgeStyle;rounded=0;orthogonalLoop=1;jettySize=auto;html=1;" parent="1" source="21sruWTBT0xR1gK5jgPk-60" target="21sruWTBT0xR1gK5jgPk-62" edge="1">
          <mxGeometry relative="1" as="geometry" />
        </mxCell>
        <mxCell id="21sruWTBT0xR1gK5jgPk-60" value="" style="shape=image;html=1;verticalAlign=top;verticalLabelPosition=bottom;labelBackgroundColor=#ffffff;imageAspect=0;aspect=fixed;image=https://cdn4.iconfinder.com/data/icons/48-bubbles/48/18.Pictures-Day-128.png" parent="1" vertex="1">
          <mxGeometry x="720" y="1931" width="128" height="128" as="geometry" />
        </mxCell>
        <mxCell id="21sruWTBT0xR1gK5jgPk-71" style="edgeStyle=orthogonalEdgeStyle;rounded=0;orthogonalLoop=1;jettySize=auto;html=1;" parent="1" source="21sruWTBT0xR1gK5jgPk-62" target="21sruWTBT0xR1gK5jgPk-63" edge="1">
          <mxGeometry relative="1" as="geometry" />
        </mxCell>
        <mxCell id="21sruWTBT0xR1gK5jgPk-62" value="" style="sketch=0;outlineConnect=0;fontColor=#232F3E;gradientColor=none;fillColor=#01A88D;strokeColor=none;dashed=0;verticalLabelPosition=bottom;verticalAlign=top;align=center;html=1;fontSize=12;fontStyle=0;aspect=fixed;pointerEvents=1;shape=mxgraph.aws4.sagemaker_model;" parent="1" vertex="1">
          <mxGeometry x="970" y="1956" width="78" height="78" as="geometry" />
        </mxCell>
        <mxCell id="21sruWTBT0xR1gK5jgPk-72" style="edgeStyle=orthogonalEdgeStyle;rounded=0;orthogonalLoop=1;jettySize=auto;html=1;" parent="1" source="21sruWTBT0xR1gK5jgPk-63" target="21sruWTBT0xR1gK5jgPk-64" edge="1">
          <mxGeometry relative="1" as="geometry" />
        </mxCell>
        <mxCell id="21sruWTBT0xR1gK5jgPk-63" value="" style="shape=image;html=1;verticalAlign=top;verticalLabelPosition=bottom;labelBackgroundColor=#ffffff;imageAspect=0;aspect=fixed;image=https://cdn1.iconfinder.com/data/icons/electronics-outline-24/24/kitchen_scale_food_scale_weighing_scale_weight_machine_weight_scale-128.png" parent="1" vertex="1">
          <mxGeometry x="1150" y="1931" width="128" height="128" as="geometry" />
        </mxCell>
        <mxCell id="21sruWTBT0xR1gK5jgPk-73" style="edgeStyle=orthogonalEdgeStyle;rounded=0;orthogonalLoop=1;jettySize=auto;html=1;" parent="1" source="21sruWTBT0xR1gK5jgPk-64" edge="1">
          <mxGeometry relative="1" as="geometry">
            <mxPoint x="1570" y="1995.0000000000005" as="targetPoint" />
          </mxGeometry>
        </mxCell>
        <mxCell id="21sruWTBT0xR1gK5jgPk-64" value="" style="sketch=0;pointerEvents=1;shadow=0;dashed=0;html=1;strokeColor=none;fillColor=#434445;aspect=fixed;labelPosition=center;verticalLabelPosition=bottom;verticalAlign=top;align=center;outlineConnect=0;shape=mxgraph.vvd.cpu;" parent="1" vertex="1">
          <mxGeometry x="1370" y="1953.5" width="83" height="83" as="geometry" />
        </mxCell>
        <mxCell id="21sruWTBT0xR1gK5jgPk-65" value="" style="shape=datastore;whiteSpace=wrap;html=1;" parent="1" vertex="1">
          <mxGeometry x="1570" y="1950" width="70" height="84" as="geometry" />
        </mxCell>
        <mxCell id="21sruWTBT0xR1gK5jgPk-75" value="&lt;font style=&quot;font-size: 23px;&quot;&gt;&lt;b&gt;Picture Upload&lt;/b&gt;&lt;/font&gt;" style="text;html=1;align=center;verticalAlign=middle;whiteSpace=wrap;rounded=0;" parent="1" vertex="1">
          <mxGeometry x="754" y="2070" width="60" height="30" as="geometry" />
        </mxCell>
        <mxCell id="21sruWTBT0xR1gK5jgPk-76" value="&lt;font size=&quot;1&quot; style=&quot;&quot;&gt;&lt;b style=&quot;font-size: 23px;&quot;&gt;Food Recognition&lt;/b&gt;&lt;/font&gt;" style="text;html=1;align=center;verticalAlign=middle;whiteSpace=wrap;rounded=0;" parent="1" vertex="1">
          <mxGeometry x="988" y="2070" width="60" height="30" as="geometry" />
        </mxCell>
        <mxCell id="21sruWTBT0xR1gK5jgPk-77" value="&lt;font style=&quot;font-size: 23px;&quot;&gt;&lt;b&gt;Volume Estimation&lt;/b&gt;&lt;/font&gt;" style="text;html=1;align=center;verticalAlign=middle;whiteSpace=wrap;rounded=0;" parent="1" vertex="1">
          <mxGeometry x="1180" y="2070" width="60" height="30" as="geometry" />
        </mxCell>
        <mxCell id="21sruWTBT0xR1gK5jgPk-78" value="&lt;font style=&quot;font-size: 23px;&quot;&gt;&lt;b&gt;Calorie Prediction&lt;/b&gt;&lt;/font&gt;" style="text;html=1;align=center;verticalAlign=middle;whiteSpace=wrap;rounded=0;" parent="1" vertex="1">
          <mxGeometry x="1381.5" y="2070" width="60" height="30" as="geometry" />
        </mxCell>
        <mxCell id="21sruWTBT0xR1gK5jgPk-80" value="&lt;font style=&quot;font-size: 23px;&quot;&gt;&lt;b&gt;Database Logs&lt;/b&gt;&lt;/font&gt;" style="text;html=1;align=center;verticalAlign=middle;whiteSpace=wrap;rounded=0;" parent="1" vertex="1">
          <mxGeometry x="1580" y="2059" width="60" height="30" as="geometry" />
        </mxCell>
        <mxCell id="21sruWTBT0xR1gK5jgPk-81" value="&lt;font style=&quot;font-size: 23px;&quot;&gt;&lt;b&gt;Authentication Service&lt;/b&gt;&lt;/font&gt;" style="text;html=1;align=center;verticalAlign=middle;whiteSpace=wrap;rounded=0;" parent="1" vertex="1">
          <mxGeometry x="498" y="1860" width="60" height="30" as="geometry" />
        </mxCell>
        <mxCell id="21sruWTBT0xR1gK5jgPk-82" value="&lt;font style=&quot;font-size: 23px;&quot;&gt;&lt;b&gt;Body Information&lt;/b&gt;&lt;/font&gt;" style="text;html=1;align=center;verticalAlign=middle;whiteSpace=wrap;rounded=0;" parent="1" vertex="1">
          <mxGeometry x="737" y="1721" width="60" height="30" as="geometry" />
        </mxCell>
        <mxCell id="21sruWTBT0xR1gK5jgPk-83" value="&lt;font style=&quot;font-size: 23px;&quot;&gt;&lt;b&gt;Calorie Goal Settings&lt;/b&gt;&lt;/font&gt;" style="text;html=1;align=center;verticalAlign=middle;whiteSpace=wrap;rounded=0;" parent="1" vertex="1">
          <mxGeometry x="919" y="1721" width="150" height="30" as="geometry" />
        </mxCell>
        <mxCell id="21sruWTBT0xR1gK5jgPk-84" value="&lt;font style=&quot;font-size: 23px;&quot;&gt;&lt;b&gt;User Interfaces&lt;/b&gt;&lt;/font&gt;" style="text;html=1;align=center;verticalAlign=middle;whiteSpace=wrap;rounded=0;" parent="1" vertex="1">
          <mxGeometry x="148.34" y="1956" width="60" height="30" as="geometry" />
        </mxCell>
      </root>
    </mxGraphModel>
  </diagram>
</mxfile>
